<svg width="24" height="24" viewBox="0 0 24 24" fill="none" xmlns="http://www.w3.org/2000/svg">
<path d="M3.21938 12.531L9.96937 19.281C10.1101 19.4218 10.301 19.5008 10.5 19.5008C10.699 19.5008 10.8899 19.4218 11.0306 19.281C11.1714 19.1403 11.2504 18.9494 11.2504 18.7504C11.2504 18.5514 11.1714 18.3605 11.0306 18.2198L5.56031 12.7504H20.25C20.4489 12.7504 20.6397 12.6714 20.7803 12.5307C20.921 12.3901 21 12.1993 21 12.0004C21 11.8015 20.921 11.6107 20.7803 11.4701C20.6397 11.3294 20.4489 11.2504 20.25 11.2504H5.56031L11.0306 5.78104C11.1714 5.64031 11.2504 5.44944 11.2504 5.25042C11.2504 5.05139 11.1714 4.86052 11.0306 4.71979C10.8899 4.57906 10.699 4.5 10.5 4.5C10.301 4.5 10.1101 4.57906 9.96937 4.71979L3.21938 11.4698C3.14964 11.5394 3.09432 11.6222 3.05658 11.7132C3.01884 11.8043 2.99941 11.9019 2.99941 12.0004C2.99941 12.099 3.01884 12.1966 3.05658 12.2876C3.09432 12.3787 3.14964 12.4614 3.21938 12.531Z" fill="#FDFDFD"/>
</svg>
