<svg width="142" height="142" viewBox="0 0 142 142" fill="none" xmlns="http://www.w3.org/2000/svg">
<path d="M99.698 88.464V79.1882L91.613 74.5274V55.9872L80.1728 49.3796L76.1305 47.0435L53.9144 34.2177L41.7985 27.2208L18.8953 13.9941V97.442L91.613 139.435V120.895L99.698 125.556V116.28L91.613 111.619V102.343L99.698 107.016V97.7398L91.613 93.0675V83.8031L99.698 88.464ZM53.2273 103.363L31.0112 90.5366V71.9966L41.7985 78.2261L48.2228 81.9364L53.2273 84.8222V103.363ZM53.2273 80.1845L52.5287 79.7835L41.7985 73.5883L31.0112 67.3585V34.9048L41.7985 41.1343L53.2273 47.7305V80.1845ZM79.4972 118.524L57.2696 105.699V73.2448L76.1305 84.1238L79.4972 86.0706V118.524ZM79.4972 81.4327L76.1305 79.4859L57.2696 68.6069V50.0667L74.4814 59.9953L76.1305 60.9458L79.4972 62.8924V81.4327Z" stroke="#A3A3A3" stroke-linecap="round" stroke-linejoin="round"/>
<path d="M53.2269 47.7305V56.2506L41.798 61.9649L31.0107 67.3585V34.9048L41.798 41.1343L53.2269 47.7305Z" stroke="#A3A3A3" stroke-linecap="round" stroke-linejoin="round"/>
<path d="M114.516 81.0552V81.6163L102.4 87.6741L91.6128 93.0679V83.8035L99.6977 88.4643L102.4 87.113L114.516 81.0552Z" stroke="#A3A3A3" stroke-linecap="round" stroke-linejoin="round"/>
<path d="M114.516 118.147V127.984L91.6128 139.436V120.895L99.6977 125.556L105.389 122.716L114.516 118.147Z" stroke="#A3A3A3" stroke-linecap="round" stroke-linejoin="round"/>
<path d="M122.601 104.829V114.104L114.516 118.147L105.389 122.716L99.698 125.556V116.28L122.601 104.829Z" stroke="#A3A3A3" stroke-linecap="round" stroke-linejoin="round"/>
<path d="M122.601 104.828L99.6977 116.28L91.6128 111.619L101.61 106.615L102.4 106.225L114.516 100.167L122.601 104.828Z" stroke="#A3A3A3" stroke-linecap="round" stroke-linejoin="round"/>
<path d="M114.516 99.6069V100.168L102.4 106.226L101.61 106.615L91.6128 111.62V102.344L99.6977 107.016L101.095 106.318L102.4 105.665L114.516 99.6069Z" stroke="#A3A3A3" stroke-linecap="round" stroke-linejoin="round"/>
<path d="M122.601 86.2886V95.5644L114.516 99.6068L102.401 105.665L101.095 106.317L99.698 107.016V97.7402L122.601 86.2886Z" stroke="#A3A3A3" stroke-linecap="round" stroke-linejoin="round"/>
<path d="M122.601 86.288L99.6977 97.7396L91.6128 93.0673L102.4 87.6735L114.516 81.6157L122.601 86.288Z" stroke="#A3A3A3" stroke-linecap="round" stroke-linejoin="round"/>
<path d="M122.601 67.7368V77.0126L114.516 81.0552L102.401 87.1129L99.698 88.4642V79.1884L122.601 67.7368Z" stroke="#A3A3A3" stroke-linecap="round" stroke-linejoin="round"/>
<path d="M122.601 67.7365L99.6977 79.1881L91.6128 74.5273L97.3044 71.6758L101.61 69.5229L102.4 69.1336L114.516 63.0757L122.601 67.7365Z" stroke="#A3A3A3" stroke-linecap="round" stroke-linejoin="round"/>
<path d="M79.4961 94.5898V118.524L57.2686 105.698L67.2657 100.694L79.4961 94.5898Z" stroke="#A3A3A3" stroke-linecap="round" stroke-linejoin="round"/>
<path d="M53.2269 84.8224V103.363L31.0107 90.5368L41.798 85.1431L48.2224 81.9365L53.2269 84.8224Z" stroke="#A3A3A3" stroke-linecap="round" stroke-linejoin="round"/>
<path d="M48.2224 81.9365L41.798 85.143L31.0107 90.5367V71.9966L41.798 78.2263L48.2224 81.9365Z" stroke="#A3A3A3" stroke-linecap="round" stroke-linejoin="round"/>
<path d="M53.2269 56.25V80.1839L52.5282 79.7829L41.798 73.5877L31.0107 67.3581L41.798 61.9644L53.2269 56.25Z" stroke="#A3A3A3" stroke-linecap="round" stroke-linejoin="round"/>
<path d="M114.516 44.5356L101.61 50.9828L91.613 55.9872L80.1728 49.3796L76.1305 47.0435L53.9144 34.2177L41.7985 27.2207L18.8953 13.9941L41.7985 2.54248L114.516 44.5356Z" stroke="#A3A3A3" stroke-linecap="round" stroke-linejoin="round"/>
<path d="M114.516 44.5352V63.0753L102.4 69.1332L101.61 69.5226L97.3044 71.6755L91.6128 74.5269V55.9868L101.61 50.9824L114.516 44.5352Z" stroke="#A3A3A3" stroke-linecap="round" stroke-linejoin="round"/>
<path d="M79.4961 62.8927V81.433L76.1295 79.4864L57.2686 68.6073L67.2545 63.6142L74.4803 59.9956L76.1295 60.9461L79.4961 62.8927Z" stroke="#A3A3A3" stroke-linecap="round" stroke-linejoin="round"/>
<path d="M74.4803 59.995L67.2545 63.6135L57.2686 68.6066V50.0664L74.4803 59.995Z" stroke="#A3A3A3" stroke-linecap="round" stroke-linejoin="round"/>
<path d="M79.4961 86.0704V94.5904L67.2657 100.694L57.2686 105.698V73.2446L76.1295 84.1237L79.4961 86.0704Z" stroke="#A3A3A3" stroke-linecap="round" stroke-linejoin="round"/>
</svg>
