<svg width="25" height="25" viewBox="0 0 25 25" fill="none" xmlns="http://www.w3.org/2000/svg">
<path fill-rule="evenodd" clip-rule="evenodd" d="M14.023 5.64996C13.1524 4.8146 11.7779 4.8146 10.9073 5.64996L6.28089 10.0893C6.16754 10.1981 6.09129 10.3397 6.06295 10.4943C5.50882 13.5161 5.46792 16.6097 5.94196 19.6452L6.05448 20.3657H9.03094V14.1544C9.03094 13.7402 9.36673 13.4044 9.78094 13.4044H15.1494C15.5636 13.4044 15.8994 13.7402 15.8994 14.1544V20.3657H18.8758L18.9883 19.6452C19.4624 16.6098 19.4215 13.5161 18.8673 10.4943C18.839 10.3397 18.7628 10.1981 18.6494 10.0893L14.023 5.64996ZM9.86878 4.56764C11.3197 3.17537 13.6106 3.17537 15.0615 4.56764L19.688 9.00697C20.0285 9.33377 20.2576 9.75946 20.3427 10.2237C20.9273 13.4113 20.9704 16.6747 20.4704 19.8766L20.2896 21.0341C20.2149 21.5128 19.8026 21.8657 19.3181 21.8657H15.1494C14.7351 21.8657 14.3994 21.5299 14.3994 21.1157V14.9044H10.5309V21.1157C10.5309 21.5299 10.1952 21.8657 9.78094 21.8657H5.61221C5.12773 21.8657 4.71544 21.5128 4.64069 21.0341L4.45993 19.8766C3.95988 16.6747 4.00302 13.4113 4.58755 10.2237C4.67269 9.75946 4.90177 9.33377 5.24234 9.00697L9.86878 4.56764Z" fill="#A3A3A3"/>
</svg>
