<svg width="25" height="25" viewBox="0 0 25 25" fill="none" xmlns="http://www.w3.org/2000/svg">
<path d="M12.1782 2.95312C10.2499 2.95313 8.3648 3.52495 6.76142 4.5963C5.15804 5.66764 3.90836 7.19038 3.1704 8.97196C2.43245 10.7535 2.23936 12.7139 2.61557 14.6053C2.99178 16.4966 3.92037 18.2339 5.28394 19.5974C6.6475 20.961 8.38478 21.8896 10.2761 22.2658C12.1674 22.642 14.1278 22.4489 15.9094 21.7109C17.691 20.973 19.2137 19.7233 20.2851 18.1199C21.3564 16.5166 21.9282 14.6315 21.9282 12.7031C21.9255 10.1181 20.8974 7.63974 19.0695 5.81185C17.2416 3.98396 14.7633 2.95585 12.1782 2.95312ZM12.1782 20.9531C10.5465 20.9531 8.95148 20.4693 7.59477 19.5627C6.23807 18.6562 5.18064 17.3678 4.55622 15.8603C3.9318 14.3528 3.76842 12.694 4.08675 11.0936C4.40508 9.49329 5.19081 8.02328 6.3446 6.86949C7.49838 5.71571 8.96839 4.92997 10.5687 4.61165C12.1691 4.29332 13.8279 4.4567 15.3354 5.08112C16.8429 5.70554 18.1313 6.76296 19.0379 8.11967C19.9444 9.47638 20.4282 11.0714 20.4282 12.7031C20.4257 14.8904 19.5558 16.9874 18.0091 18.534C16.4625 20.0807 14.3655 20.9506 12.1782 20.9531ZM13.6782 17.2031C13.6782 17.402 13.5992 17.5928 13.4586 17.7335C13.3179 17.8741 13.1271 17.9531 12.9282 17.9531C12.5304 17.9531 12.1489 17.7951 11.8676 17.5138C11.5863 17.2325 11.4282 16.8509 11.4282 16.4531V12.7031C11.2293 12.7031 11.0385 12.6241 10.8979 12.4835C10.7572 12.3428 10.6782 12.152 10.6782 11.9531C10.6782 11.7542 10.7572 11.5634 10.8979 11.4228C11.0385 11.2821 11.2293 11.2031 11.4282 11.2031C11.8261 11.2031 12.2076 11.3612 12.4889 11.6425C12.7702 11.9238 12.9282 12.3053 12.9282 12.7031V16.4531C13.1271 16.4531 13.3179 16.5321 13.4586 16.6728C13.5992 16.8134 13.6782 17.0042 13.6782 17.2031ZM10.6782 8.57812C10.6782 8.35562 10.7442 8.13811 10.8678 7.95311C10.9914 7.7681 11.1671 7.62391 11.3727 7.53876C11.5783 7.45361 11.8045 7.43133 12.0227 7.47474C12.2409 7.51815 12.4414 7.6253 12.5987 7.78263C12.7561 7.93996 12.8632 8.14042 12.9066 8.35865C12.95 8.57688 12.9277 8.80308 12.8426 9.00864C12.7574 9.21421 12.6132 9.38991 12.4282 9.51353C12.2432 9.63715 12.0257 9.70312 11.8032 9.70312C11.5049 9.70312 11.2187 9.5846 11.0077 9.37362C10.7968 9.16264 10.6782 8.87649 10.6782 8.57812Z" fill="#AD6AFF"/>
</svg>
