<svg width="25" height="25" viewBox="0 0 25 25" fill="none" xmlns="http://www.w3.org/2000/svg">
<path d="M14.7151 21.8142C14.7151 22.0131 14.636 22.2038 14.4954 22.3445C14.3547 22.4851 14.164 22.5642 13.9651 22.5642H10.9651C10.7662 22.5642 10.5754 22.4851 10.4347 22.3445C10.2941 22.2038 10.2151 22.0131 10.2151 21.8142C10.2151 21.6152 10.2941 21.4245 10.4347 21.2838C10.5754 21.1432 10.7662 21.0642 10.9651 21.0642H13.9651C14.164 21.0642 14.3547 21.1432 14.4954 21.2838C14.636 21.4245 14.7151 21.6152 14.7151 21.8142ZM12.4651 11.3142C12.6876 11.3142 12.9051 11.2482 13.0901 11.1246C13.2751 11.0009 13.4193 10.8252 13.5044 10.6197C13.5896 10.4141 13.6119 10.1879 13.5684 9.96968C13.525 9.75145 13.4179 9.551 13.2606 9.39366C13.1032 9.23633 12.9028 9.12918 12.6845 9.08577C12.4663 9.04237 12.2401 9.06464 12.0345 9.14979C11.829 9.23494 11.6533 9.37914 11.5297 9.56414C11.406 9.74915 11.3401 9.96665 11.3401 10.1892C11.3401 10.4875 11.4586 10.7737 11.6696 10.9847C11.8805 11.1956 12.1667 11.3142 12.4651 11.3142ZM21.4294 15.4232L20.2707 20.6385C20.2157 20.8862 20.0988 21.1159 19.931 21.3061C19.7631 21.4963 19.5497 21.6408 19.3108 21.7261C19.0719 21.8114 18.8152 21.8348 18.5649 21.7939C18.3145 21.7531 18.0785 21.6494 17.8791 21.4926L15.3254 19.5642H9.60663L7.051 21.4926C6.85158 21.6494 6.61565 21.7531 6.36527 21.7939C6.11489 21.8348 5.85824 21.8114 5.61933 21.7261C5.38041 21.6408 5.16704 21.4963 4.99917 21.3061C4.8313 21.1159 4.71441 20.8862 4.65944 20.6385L3.50069 15.4232C3.45154 15.1994 3.45402 14.9673 3.50795 14.7446C3.56188 14.5219 3.66584 14.3144 3.81194 14.1379L6.48944 10.926C6.5793 9.74566 6.85029 8.58616 7.29288 7.48822C8.50225 4.45635 10.6679 2.55416 11.5463 1.87728C11.8092 1.67355 12.1324 1.56299 12.4651 1.56299C12.7977 1.56299 13.1209 1.67355 13.3838 1.87728C14.2594 2.55416 16.4279 4.45635 17.6373 7.48822C18.0798 8.58616 18.3508 9.74566 18.4407 10.926L21.1182 14.1379C21.2643 14.3144 21.3682 14.5219 21.4222 14.7446C21.4761 14.9673 21.4786 15.1994 21.4294 15.4232ZM9.78663 18.0642H15.1435C17.1235 14.5448 17.4938 11.1754 16.2441 8.04416C15.1416 5.28041 13.0735 3.53291 12.4651 3.06416C11.8548 3.53291 9.78662 5.28041 8.68412 8.04416C7.43631 11.1754 7.80663 14.5448 9.78663 18.0642ZM8.38038 18.6126C7.371 16.7782 6.7585 14.9754 6.54288 13.2042L4.96506 15.0979L6.12381 20.3142L6.14069 20.302L8.38038 18.6126ZM19.9651 15.0979L18.3873 13.2042C18.1735 14.9717 17.5623 16.7745 16.5535 18.6126L18.7894 20.3001L18.8063 20.3123L19.9651 15.0979Z" fill="#A3A3A3"/>
</svg>
