<svg width="25" height="24" viewBox="0 0 25 24" fill="none" xmlns="http://www.w3.org/2000/svg">
<path d="M21.2327 12C21.2327 12.1989 21.1536 12.3897 21.013 12.5303C20.8723 12.671 20.6816 12.75 20.4827 12.75H12.9827V20.25C12.9827 20.4489 12.9036 20.6397 12.763 20.7803C12.6223 20.921 12.4316 21 12.2327 21C12.0338 21 11.843 20.921 11.7023 20.7803C11.5617 20.6397 11.4827 20.4489 11.4827 20.25V12.75H3.98267C3.78375 12.75 3.59299 12.671 3.45234 12.5303C3.31168 12.3897 3.23267 12.1989 3.23267 12C3.23267 11.8011 3.31168 11.6103 3.45234 11.4697C3.59299 11.329 3.78375 11.25 3.98267 11.25H11.4827V3.75C11.4827 3.55109 11.5617 3.36032 11.7023 3.21967C11.843 3.07902 12.0338 3 12.2327 3C12.4316 3 12.6223 3.07902 12.763 3.21967C12.9036 3.36032 12.9827 3.55109 12.9827 3.75V11.25H20.4827C20.6816 11.25 20.8723 11.329 21.013 11.4697C21.1536 11.6103 21.2327 11.8011 21.2327 12Z" fill="#FDFDFD"/>
</svg>
