<svg width="21" height="20" viewBox="0 0 21 20" fill="none" xmlns="http://www.w3.org/2000/svg">
<path d="M10.4651 0.296387C8.53672 0.296387 6.65166 0.868214 5.04828 1.93956C3.4449 3.0109 2.19522 4.53364 1.45727 6.31522C0.719312 8.0968 0.52623 10.0572 0.902436 11.9485C1.27864 13.8398 2.20724 15.5771 3.5708 16.9407C4.93436 18.3042 6.67165 19.2328 8.56296 19.609C10.4543 19.9852 12.4147 19.7922 14.1963 19.0542C15.9778 18.3163 17.5006 17.0666 18.5719 15.4632C19.6433 13.8598 20.2151 11.9748 20.2151 10.0464C20.2124 7.46136 19.1843 4.983 17.3564 3.15511C15.5285 1.32722 13.0501 0.299117 10.4651 0.296387ZM10.4651 18.2964C8.8334 18.2964 7.23834 17.8125 5.88164 16.906C4.52493 15.9995 3.46751 14.711 2.84309 13.2035C2.21866 11.696 2.05529 10.0372 2.37361 8.43689C2.69194 6.83655 3.47768 5.36654 4.63146 4.21276C5.78524 3.05897 7.25525 2.27324 8.8556 1.95491C10.4559 1.63658 12.1147 1.79996 13.6222 2.42438C15.1297 3.0488 16.4182 4.10623 17.3247 5.46293C18.2312 6.81964 18.7151 8.41469 18.7151 10.0464C18.7126 12.2337 17.8426 14.3306 16.296 15.8773C14.7493 17.4239 12.6524 18.2939 10.4651 18.2964ZM13.4651 6.29639H7.46509C7.26618 6.29639 7.07541 6.3754 6.93476 6.51606C6.79411 6.65671 6.71509 6.84747 6.71509 7.04639V13.0464C6.71509 13.2453 6.79411 13.4361 6.93476 13.5767C7.07541 13.7174 7.26618 13.7964 7.46509 13.7964H13.4651C13.664 13.7964 13.8548 13.7174 13.9954 13.5767C14.1361 13.4361 14.2151 13.2453 14.2151 13.0464V7.04639C14.2151 6.84747 14.1361 6.65671 13.9954 6.51606C13.8548 6.3754 13.664 6.29639 13.4651 6.29639ZM12.7151 12.2964H8.21509V7.79639H12.7151V12.2964Z" fill="#A3A3A3"/>
</svg>
