<svg width="25" height="25" viewBox="0 0 25 25" fill="none" xmlns="http://www.w3.org/2000/svg">
<path d="M12.4651 2.59863C10.5367 2.59863 8.65166 3.17046 7.04828 4.2418C5.4449 5.31315 4.19522 6.83589 3.45727 8.61747C2.71931 10.399 2.52623 12.3594 2.90244 14.2508C3.27864 16.1421 4.20724 17.8794 5.5708 19.2429C6.93436 20.6065 8.67165 21.5351 10.563 21.9113C12.4543 22.2875 14.4147 22.0944 16.1963 21.3565C17.9778 20.6185 19.5006 19.3688 20.5719 17.7654C21.6433 16.1621 22.2151 14.277 22.2151 12.3486C22.2124 9.76361 21.1843 7.28524 19.3564 5.45736C17.5285 3.62947 15.0501 2.60136 12.4651 2.59863ZM12.4651 20.5986C10.8334 20.5986 9.23834 20.1148 7.88164 19.2083C6.52493 18.3017 5.46751 17.0133 4.84309 15.5058C4.21866 13.9983 4.05529 12.3395 4.37361 10.7391C4.69194 9.13879 5.47768 7.66879 6.63146 6.515C7.78524 5.36122 9.25525 4.57548 10.8556 4.25715C12.4559 3.93883 14.1147 4.1022 15.6222 4.72663C17.1297 5.35105 18.4182 6.40847 19.3247 7.76518C20.2312 9.12188 20.7151 10.7169 20.7151 12.3486C20.7126 14.5359 19.8426 16.6329 18.296 18.1795C16.7493 19.7262 14.6524 20.5962 12.4651 20.5986ZM12.4651 5.59863C11.1301 5.59863 9.82502 5.99451 8.71499 6.73621C7.60496 7.47791 6.7398 8.53212 6.22891 9.76552C5.71801 10.9989 5.58434 12.3561 5.84479 13.6655C6.10524 14.9749 6.74812 16.1776 7.69212 17.1216C8.63613 18.0656 9.83886 18.7085 11.1482 18.9689C12.4576 19.2294 13.8148 19.0957 15.0482 18.5848C16.2816 18.0739 17.3358 17.2088 18.0775 16.0987C18.8192 14.9887 19.2151 13.6837 19.2151 12.3486C19.2131 10.559 18.5013 8.8433 17.2359 7.57786C15.9704 6.31241 14.2547 5.60062 12.4651 5.59863ZM12.4651 17.5986C11.4267 17.5986 10.4117 17.2907 9.54835 16.7138C8.68499 16.137 8.01208 15.317 7.61473 14.3577C7.21736 13.3984 7.1134 12.3428 7.31597 11.3244C7.51854 10.306 8.01856 9.37055 8.75278 8.63632C9.48701 7.9021 10.4225 7.40208 11.4409 7.19951C12.4593 6.99694 13.5149 7.10091 14.4742 7.49827C15.4335 7.89563 16.2534 8.56853 16.8303 9.43189C17.4072 10.2952 17.7151 11.3103 17.7151 12.3486C17.7136 13.7406 17.16 15.0751 16.1758 16.0593C15.1915 17.0435 13.857 17.5971 12.4651 17.5986Z" fill="#A3A3A3"/>
</svg>
