<svg width="10" height="10" viewBox="0 0 10 10" fill="none" xmlns="http://www.w3.org/2000/svg">
<path d="M4.41629 0.863101C4.34935 0.931711 4.29666 1.01289 4.26126 1.10197C4.22585 1.19105 4.20844 1.28625 4.21001 1.38209C4.21159 1.47793 4.23213 1.57251 4.27044 1.66037C4.30875 1.74824 4.36408 1.82765 4.43324 1.89402L6.86831 4.24317L1.35797 4.33376C1.16543 4.33693 0.982022 4.41645 0.848109 4.55484C0.714197 4.69323 0.640744 4.87915 0.643909 5.0717C0.647075 5.26425 0.7266 5.44765 0.86499 5.58156C1.00338 5.71547 1.1893 5.78893 1.38184 5.78576L6.89218 5.69516L4.53565 8.12309C4.40119 8.26205 4.32744 8.44873 4.33062 8.64206C4.33379 8.8354 4.41365 9.01955 4.5526 9.15401C4.69156 9.28847 4.87824 9.36222 5.07157 9.35905C5.26491 9.35587 5.44906 9.27602 5.58352 9.13706L9.15383 5.44738C9.21879 5.37725 9.26927 5.29498 9.30235 5.2053C9.33933 5.11776 9.35763 5.02347 9.35607 4.92846C9.35451 4.83345 9.33312 4.73981 9.29328 4.65354C9.25726 4.56499 9.20411 4.48442 9.13688 4.41646L5.44721 0.846151C5.3786 0.779214 5.29741 0.726523 5.20834 0.69112C5.11926 0.655716 5.02406 0.6383 4.92822 0.639876C4.83238 0.641452 4.7378 0.661988 4.64993 0.7003C4.56207 0.738613 4.48266 0.793945 4.41629 0.863101Z" fill="white"/>
</svg>
