<svg width="25" height="25" viewBox="0 0 25 25" fill="none" xmlns="http://www.w3.org/2000/svg">
<path d="M21.8218 5V14.75C21.8218 15.1478 21.6637 15.5294 21.3824 15.8107C21.1011 16.092 20.7196 16.25 20.3218 16.25H10.1321L11.1024 17.2194C11.1721 17.2891 11.2274 17.3718 11.2651 17.4628C11.3028 17.5539 11.3222 17.6515 11.3222 17.75C11.3222 17.8485 11.3028 17.9461 11.2651 18.0372C11.2274 18.1282 11.1721 18.2109 11.1024 18.2806C11.0327 18.3503 10.95 18.4056 10.8589 18.4433C10.7679 18.481 10.6703 18.5004 10.5718 18.5004C10.4732 18.5004 10.3756 18.481 10.2846 18.4433C10.1936 18.4056 10.1108 18.3503 10.0412 18.2806L7.79115 16.0306C7.72142 15.961 7.6661 15.8783 7.62836 15.7872C7.59061 15.6962 7.57119 15.5986 7.57119 15.5C7.57119 15.4014 7.59061 15.3038 7.62836 15.2128C7.6661 15.1217 7.72142 15.039 7.79115 14.9694L10.0412 12.7194C10.1819 12.5786 10.3728 12.4996 10.5718 12.4996C10.7708 12.4996 10.9617 12.5786 11.1024 12.7194C11.2431 12.8601 11.3222 13.051 11.3222 13.25C11.3222 13.449 11.2431 13.6399 11.1024 13.7806L10.1321 14.75H20.3218V5H9.82178V5.75C9.82178 5.94891 9.74276 6.13968 9.60211 6.28033C9.46145 6.42098 9.27069 6.5 9.07178 6.5C8.87287 6.5 8.6821 6.42098 8.54145 6.28033C8.40079 6.13968 8.32178 5.94891 8.32178 5.75V5C8.32178 4.60218 8.47981 4.22064 8.76112 3.93934C9.04242 3.65804 9.42395 3.5 9.82178 3.5H20.3218C20.7196 3.5 21.1011 3.65804 21.3824 3.93934C21.6637 4.22064 21.8218 4.60218 21.8218 5ZM16.5718 18.5C16.3729 18.5 16.1821 18.579 16.0414 18.7197C15.9008 18.8603 15.8218 19.0511 15.8218 19.25V20H5.32178V10.25H15.5115L14.5412 11.2194C14.4004 11.3601 14.3214 11.551 14.3214 11.75C14.3214 11.949 14.4004 12.1399 14.5412 12.2806C14.6819 12.4214 14.8728 12.5004 15.0718 12.5004C15.2708 12.5004 15.4617 12.4214 15.6024 12.2806L17.8524 10.0306C17.9221 9.96097 17.9775 9.87825 18.0152 9.78721C18.0529 9.69616 18.0724 9.59856 18.0724 9.5C18.0724 9.40144 18.0529 9.30384 18.0152 9.21279C17.9775 9.12175 17.9221 9.03903 17.8524 8.96937L15.6024 6.71937C15.4617 6.57864 15.2708 6.49958 15.0718 6.49958C14.8728 6.49958 14.6819 6.57864 14.5412 6.71937C14.4004 6.86011 14.3214 7.05098 14.3214 7.25C14.3214 7.44902 14.4004 7.63989 14.5412 7.78063L15.5115 8.75H5.32178C4.92395 8.75 4.54242 8.90804 4.26112 9.18934C3.97981 9.47064 3.82178 9.85218 3.82178 10.25V20C3.82178 20.3978 3.97981 20.7794 4.26112 21.0607C4.54242 21.342 4.92395 21.5 5.32178 21.5H15.8218C16.2196 21.5 16.6011 21.342 16.8824 21.0607C17.1637 20.7794 17.3218 20.3978 17.3218 20V19.25C17.3218 19.0511 17.2428 18.8603 17.1021 18.7197C16.9615 18.579 16.7707 18.5 16.5718 18.5Z" fill="#FDFDFD"/>
</svg>
