<svg width="25" height="25" viewBox="0 0 25 25" fill="none" xmlns="http://www.w3.org/2000/svg">
<path d="M13.2152 8.08139V12.1567L16.6014 14.1883C16.772 14.2907 16.8949 14.4567 16.943 14.6498C16.9912 14.8428 16.9607 15.0471 16.8583 15.2176C16.7558 15.3882 16.5898 15.5111 16.3968 15.5593C16.2038 15.6074 15.9995 15.577 15.8289 15.4745L12.0789 13.2245C11.9679 13.1578 11.8761 13.0636 11.8123 12.9509C11.7486 12.8382 11.7151 12.7109 11.7152 12.5814V8.08139C11.7152 7.88248 11.7942 7.69171 11.9348 7.55106C12.0755 7.41041 12.2662 7.33139 12.4652 7.33139C12.6641 7.33139 12.8548 7.41041 12.9955 7.55106C13.1361 7.69171 13.2152 7.88248 13.2152 8.08139ZM21.4652 5.83139C21.2662 5.83139 21.0755 5.91041 20.9348 6.05106C20.7942 6.19171 20.7152 6.38248 20.7152 6.58139V8.26889C20.1198 7.57889 19.5123 6.9142 18.8289 6.22233C17.5781 4.97143 15.9865 4.11685 14.2528 3.76538C12.5191 3.41391 10.7203 3.58113 9.08115 4.24614C7.44197 4.91116 6.0351 6.04448 5.03635 7.50449C4.0376 8.96451 3.49124 10.6865 3.46555 12.4552C3.43986 14.224 3.93597 15.9611 4.8919 17.4495C5.84784 18.9379 7.22119 20.1116 8.84037 20.824C10.4595 21.5363 12.2527 21.7557 13.9959 21.4547C15.739 21.1537 17.3548 20.3457 18.6414 19.1317C18.7131 19.064 18.7707 18.9828 18.811 18.8928C18.8512 18.8029 18.8734 18.7058 18.8762 18.6073C18.879 18.5087 18.8623 18.4106 18.8272 18.3185C18.7921 18.2264 18.7391 18.1421 18.6714 18.0705C18.6037 17.9988 18.5225 17.9412 18.4326 17.9009C18.3426 17.8606 18.2455 17.8384 18.147 17.8357C18.0485 17.8329 17.9503 17.8495 17.8582 17.8847C17.7661 17.9198 17.6818 17.9727 17.6102 18.0405C16.5377 19.0511 15.1913 19.7235 13.739 19.9736C12.2867 20.2236 10.7929 20.0403 9.44417 19.4464C8.09545 18.8526 6.95155 17.8746 6.15533 16.6346C5.3591 15.3945 4.94584 13.9474 4.96714 12.4739C4.98844 11.0004 5.44337 9.56581 6.2751 8.34931C7.10684 7.1328 8.27853 6.18827 9.64385 5.63368C11.0092 5.07909 12.5076 4.93902 13.9521 5.23094C15.3965 5.52287 16.723 6.23387 17.7658 7.27514C18.5289 8.04764 19.1973 8.79202 19.8714 9.58139H17.7152C17.5162 9.58139 17.3255 9.66041 17.1848 9.80106C17.0442 9.94171 16.9652 10.1325 16.9652 10.3314C16.9652 10.5303 17.0442 10.7211 17.1848 10.8617C17.3255 11.0024 17.5162 11.0814 17.7152 11.0814H21.4652C21.6641 11.0814 21.8548 11.0024 21.9955 10.8617C22.1361 10.7211 22.2152 10.5303 22.2152 10.3314V6.58139C22.2152 6.38248 22.1361 6.19171 21.9955 6.05106C21.8548 5.91041 21.6641 5.83139 21.4652 5.83139Z" fill="#A3A3A3"/>
</svg>
