<svg width="30" height="29" viewBox="0 0 30 29" fill="none" xmlns="http://www.w3.org/2000/svg">
<path d="M9.11612 8.6158C9.60427 8.12764 10.3957 8.12764 10.8839 8.6158L15 12.7319L19.1161 8.61581C19.6043 8.12766 20.3957 8.12766 20.8839 8.61581C21.3721 9.10397 21.3721 9.89542 20.8839 10.3836L16.7678 14.4997L20.8839 18.6158C21.372 19.104 21.372 19.8954 20.8839 20.3836C20.3957 20.8717 19.6043 20.8717 19.1161 20.3836L15 16.2675L10.8839 20.3836C10.3957 20.8717 9.60428 20.8717 9.11613 20.3836C8.62797 19.8954 8.62797 19.104 9.11613 18.6158L13.2322 14.4997L9.11612 10.3836C8.62796 9.89541 8.62796 9.10395 9.11612 8.6158Z" fill="#A3A3A3"/>
<path fill-rule="evenodd" clip-rule="evenodd" d="M7.19456 0.780959C12.3405 0.205826 17.6595 0.205826 22.8054 0.780959C25.8494 1.12117 28.3075 3.5189 28.6656 6.58051C29.281 11.842 29.281 17.1574 28.6656 22.4189C28.3075 25.4805 25.8494 27.8782 22.8054 28.2184C17.6595 28.7936 12.3405 28.7936 7.19455 28.2184C4.15058 27.8782 1.69242 25.4805 1.33434 22.4189C0.718957 17.1574 0.718957 11.842 1.33434 6.58051C1.69242 3.5189 4.15059 1.12117 7.19456 0.780959ZM22.5277 3.26549C17.5663 2.71098 12.4336 2.71098 7.47224 3.26549C5.56485 3.47867 4.0381 4.98408 3.81742 6.87092C3.2246 11.9395 3.2246 17.0599 3.81742 22.1285C4.0381 24.0153 5.56485 25.5207 7.47224 25.7339C12.4336 26.2884 17.5663 26.2884 22.5277 25.7339C24.4351 25.5207 25.9618 24.0153 26.1825 22.1285C26.7753 17.0599 26.7753 11.9395 26.1825 6.87093C25.9618 4.98408 24.4351 3.47867 22.5277 3.26549Z" fill="#A3A3A3"/>
</svg>
