<svg width="15" height="15" viewBox="0 0 15 15" fill="none" xmlns="http://www.w3.org/2000/svg">
<path d="M12.8426 12.6576L10.1044 9.91998C10.8981 8.96716 11.2938 7.74505 11.2093 6.50788C11.1249 5.27071 10.5667 4.11373 9.65091 3.27762C8.73513 2.44151 7.53226 1.99065 6.29253 2.01882C5.0528 2.047 3.87166 2.55204 2.99481 3.42889C2.11796 4.30574 1.61292 5.48688 1.58474 6.72661C1.55657 7.96635 2.00743 9.16922 2.84354 10.085C3.67965 11.0008 4.83663 11.559 6.0738 11.6434C7.31097 11.7279 8.53308 11.3321 9.4859 10.5385L12.2236 13.2767C12.2642 13.3173 12.3125 13.3496 12.3656 13.3716C12.4187 13.3936 12.4756 13.4049 12.5331 13.4049C12.5906 13.4049 12.6475 13.3936 12.7006 13.3716C12.7537 13.3496 12.802 13.3173 12.8426 13.2767C12.8833 13.2361 12.9155 13.1878 12.9375 13.1347C12.9595 13.0816 12.9708 13.0247 12.9708 12.9672C12.9708 12.9097 12.9595 12.8528 12.9375 12.7997C12.9155 12.7465 12.8833 12.6983 12.8426 12.6576ZM2.47058 6.84217C2.47058 6.0634 2.70151 5.30213 3.13417 4.65461C3.56683 4.00709 4.18178 3.50241 4.90127 3.20439C5.62075 2.90637 6.41245 2.82839 7.17625 2.98032C7.94005 3.13225 8.64165 3.50726 9.19232 4.05793C9.74299 4.6086 10.118 5.3102 10.2699 6.074C10.4219 6.8378 10.3439 7.6295 10.0459 8.34898C9.74784 9.06847 9.24316 9.68342 8.59564 10.1161C7.94812 10.5487 7.18685 10.7797 6.40808 10.7797C5.36415 10.7785 4.3633 10.3633 3.62513 9.62512C2.88696 8.88695 2.47174 7.8861 2.47058 6.84217Z" fill="white"/>
</svg>
