<svg width="315" height="57" viewBox="0 0 315 57" fill="none" xmlns="http://www.w3.org/2000/svg">
<path d="M0.496285 24C0.496285 11.0193 11.0193 0.496285 24 0.496285H291C303.981 0.496285 314.504 11.0193 314.504 24V33C314.504 45.9807 303.981 56.5037 291 56.5037H24C11.0193 56.5037 0.496285 45.9807 0.496285 33V24Z" fill="white" fill-opacity="0.1"/>
<path d="M0.496285 24C0.496285 11.0193 11.0193 0.496285 24 0.496285H291C303.981 0.496285 314.504 11.0193 314.504 24V33C314.504 45.9807 303.981 56.5037 291 56.5037H24C11.0193 56.5037 0.496285 45.9807 0.496285 33V24Z" stroke="url(#paint0_linear_59_581)" stroke-width="0.992571"/>
<path d="M44.8218 21V30.75C44.8218 31.1478 44.6637 31.5294 44.3824 31.8107C44.1011 32.092 43.7196 32.25 43.3218 32.25H33.1321L34.1024 33.2194C34.1721 33.2891 34.2274 33.3718 34.2651 33.4628C34.3028 33.5539 34.3222 33.6515 34.3222 33.75C34.3222 33.8485 34.3028 33.9461 34.2651 34.0372C34.2274 34.1282 34.1721 34.2109 34.1024 34.2806C34.0327 34.3503 33.95 34.4056 33.8589 34.4433C33.7679 34.481 33.6703 34.5004 33.5718 34.5004C33.4732 34.5004 33.3756 34.481 33.2846 34.4433C33.1936 34.4056 33.1108 34.3503 33.0412 34.2806L30.7912 32.0306C30.7214 31.961 30.6661 31.8783 30.6284 31.7872C30.5906 31.6962 30.5712 31.5986 30.5712 31.5C30.5712 31.4014 30.5906 31.3038 30.6284 31.2128C30.6661 31.1217 30.7214 31.039 30.7912 30.9694L33.0412 28.7194C33.1819 28.5786 33.3728 28.4996 33.5718 28.4996C33.7708 28.4996 33.9617 28.5786 34.1024 28.7194C34.2431 28.8601 34.3222 29.051 34.3222 29.25C34.3222 29.449 34.2431 29.6399 34.1024 29.7806L33.1321 30.75H43.3218V21H32.8218V21.75C32.8218 21.9489 32.7428 22.1397 32.6021 22.2803C32.4615 22.421 32.2707 22.5 32.0718 22.5C31.8729 22.5 31.6821 22.421 31.5414 22.2803C31.4008 22.1397 31.3218 21.9489 31.3218 21.75V21C31.3218 20.6022 31.4798 20.2206 31.7611 19.9393C32.0424 19.658 32.424 19.5 32.8218 19.5H43.3218C43.7196 19.5 44.1011 19.658 44.3824 19.9393C44.6637 20.2206 44.8218 20.6022 44.8218 21ZM39.5718 34.5C39.3729 34.5 39.1821 34.579 39.0414 34.7197C38.9008 34.8603 38.8218 35.0511 38.8218 35.25V36H28.3218V26.25H38.5115L37.5412 27.2194C37.4004 27.3601 37.3214 27.551 37.3214 27.75C37.3214 27.949 37.4004 28.1399 37.5412 28.2806C37.6819 28.4214 37.8728 28.5004 38.0718 28.5004C38.2708 28.5004 38.4617 28.4214 38.6024 28.2806L40.8524 26.0306C40.9221 25.961 40.9775 25.8783 41.0152 25.7872C41.0529 25.6962 41.0724 25.5986 41.0724 25.5C41.0724 25.4014 41.0529 25.3038 41.0152 25.2128C40.9775 25.1217 40.9221 25.039 40.8524 24.9694L38.6024 22.7194C38.4617 22.5786 38.2708 22.4996 38.0718 22.4996C37.8728 22.4996 37.6819 22.5786 37.5412 22.7194C37.4004 22.8601 37.3214 23.051 37.3214 23.25C37.3214 23.449 37.4004 23.6399 37.5412 23.7806L38.5115 24.75H28.3218C27.924 24.75 27.5424 24.908 27.2611 25.1893C26.9798 25.4706 26.8218 25.8522 26.8218 26.25V36C26.8218 36.3978 26.9798 36.7794 27.2611 37.0607C27.5424 37.342 27.924 37.5 28.3218 37.5H38.8218C39.2196 37.5 39.6011 37.342 39.8824 37.0607C40.1637 36.7794 40.3218 36.3978 40.3218 36V35.25C40.3218 35.0511 40.2428 34.8603 40.1021 34.7197C39.9615 34.579 39.7707 34.5 39.5718 34.5Z" fill="#FDFDFD"/>
<path d="M101.694 33.668C100.714 33.668 99.8698 33.458 99.1605 33.038C98.4605 32.6087 97.9192 32.016 97.5365 31.26C97.1632 30.4947 96.9765 29.6127 96.9765 28.614C96.9765 27.6153 97.1632 26.7333 97.5365 25.968C97.9192 25.2027 98.4605 24.6053 99.1605 24.176C99.8698 23.7467 100.714 23.532 101.694 23.532C102.88 23.532 103.85 23.826 104.606 24.414C105.362 25.002 105.834 25.8327 106.02 26.906H103.962C103.841 26.3833 103.584 25.9773 103.192 25.688C102.81 25.3893 102.306 25.24 101.68 25.24C101.102 25.24 100.602 25.38 100.182 25.66C99.7718 25.9307 99.4545 26.318 99.2305 26.822C99.0065 27.3167 98.8945 27.914 98.8945 28.614C98.8945 29.3047 99.0065 29.902 99.2305 30.406C99.4545 30.91 99.7718 31.2973 100.182 31.568C100.602 31.8387 101.102 31.974 101.68 31.974C102.306 31.974 102.81 31.8387 103.192 31.568C103.575 31.288 103.827 30.9007 103.948 30.406H106.02C105.834 31.4233 105.362 32.2213 104.606 32.8C103.85 33.3787 102.88 33.668 101.694 33.668ZM107.606 33.5V23.42H109.496V27.494C109.73 27.1207 110.038 26.8267 110.42 26.612C110.812 26.388 111.265 26.276 111.778 26.276C112.366 26.276 112.861 26.402 113.262 26.654C113.664 26.8967 113.967 27.2513 114.172 27.718C114.378 28.1847 114.48 28.7633 114.48 29.454V33.5H112.604V29.622C112.604 29.062 112.488 28.6327 112.254 28.334C112.021 28.026 111.652 27.872 111.148 27.872C110.84 27.872 110.56 27.9467 110.308 28.096C110.056 28.2453 109.856 28.4647 109.706 28.754C109.566 29.034 109.496 29.37 109.496 29.762V33.5H107.606ZM118.655 33.668C118.067 33.668 117.581 33.5747 117.199 33.388C116.816 33.192 116.531 32.9353 116.345 32.618C116.167 32.2913 116.079 31.932 116.079 31.54C116.079 31.1107 116.186 30.7327 116.401 30.406C116.625 30.0793 116.956 29.8227 117.395 29.636C117.843 29.4493 118.403 29.356 119.075 29.356H120.825C120.825 29.0107 120.778 28.726 120.685 28.502C120.591 28.2687 120.447 28.096 120.251 27.984C120.055 27.872 119.793 27.816 119.467 27.816C119.112 27.816 118.809 27.8953 118.557 28.054C118.314 28.2033 118.165 28.4367 118.109 28.754H116.275C116.321 28.25 116.485 27.816 116.765 27.452C117.054 27.0787 117.432 26.7893 117.899 26.584C118.375 26.3787 118.902 26.276 119.481 26.276C120.143 26.276 120.717 26.388 121.203 26.612C121.688 26.836 122.061 27.158 122.323 27.578C122.584 27.998 122.715 28.516 122.715 29.132V33.5H121.119L120.909 32.422C120.806 32.6087 120.685 32.7767 120.545 32.926C120.405 33.0753 120.241 33.206 120.055 33.318C119.868 33.43 119.658 33.514 119.425 33.57C119.191 33.6353 118.935 33.668 118.655 33.668ZM119.103 32.212C119.345 32.212 119.56 32.17 119.747 32.086C119.943 31.9927 120.111 31.8713 120.251 31.722C120.391 31.5633 120.498 31.386 120.573 31.19C120.657 30.9847 120.713 30.7653 120.741 30.532V30.518H119.299C119.009 30.518 118.771 30.5553 118.585 30.63C118.407 30.6953 118.277 30.7933 118.193 30.924C118.109 31.0547 118.067 31.204 118.067 31.372C118.067 31.5587 118.109 31.7127 118.193 31.834C118.277 31.9553 118.398 32.0487 118.557 32.114C118.715 32.1793 118.897 32.212 119.103 32.212ZM124.492 33.5V26.444H126.158L126.298 27.592C126.513 27.2 126.816 26.8827 127.208 26.64C127.609 26.3973 128.085 26.276 128.636 26.276C129.224 26.276 129.719 26.3973 130.12 26.64C130.521 26.8827 130.825 27.2373 131.03 27.704C131.245 28.1707 131.352 28.7447 131.352 29.426V33.5H129.476V29.608C129.476 29.048 129.355 28.6187 129.112 28.32C128.879 28.0213 128.515 27.872 128.02 27.872C127.703 27.872 127.418 27.9467 127.166 28.096C126.923 28.2453 126.732 28.46 126.592 28.74C126.452 29.0107 126.382 29.342 126.382 29.734V33.5H124.492ZM136.184 36.748C135.512 36.748 134.924 36.664 134.42 36.496C133.916 36.3373 133.524 36.09 133.244 35.754C132.974 35.4273 132.838 35.0213 132.838 34.536C132.838 34.2093 132.922 33.9013 133.09 33.612C133.258 33.3227 133.501 33.0613 133.818 32.828C134.145 32.5853 134.551 32.38 135.036 32.212L135.75 33.136C135.321 33.276 135.008 33.4487 134.812 33.654C134.626 33.8687 134.532 34.0973 134.532 34.34C134.532 34.5547 134.602 34.7367 134.742 34.886C134.892 35.0353 135.088 35.1427 135.33 35.208C135.582 35.2827 135.862 35.32 136.17 35.32C136.469 35.32 136.726 35.2827 136.94 35.208C137.164 35.1333 137.337 35.0213 137.458 34.872C137.589 34.732 137.654 34.564 137.654 34.368C137.654 34.116 137.566 33.9107 137.388 33.752C137.211 33.5933 136.856 33.4953 136.324 33.458C135.848 33.4207 135.424 33.3693 135.05 33.304C134.686 33.2293 134.364 33.1453 134.084 33.052C133.804 32.9493 133.566 32.8373 133.37 32.716C133.184 32.5947 133.03 32.4733 132.908 32.352V32.03L134.406 30.42L135.764 30.854L134 32.59L134.532 31.666C134.635 31.722 134.733 31.778 134.826 31.834C134.929 31.8807 135.055 31.9273 135.204 31.974C135.354 32.0113 135.55 32.0487 135.792 32.086C136.035 32.1233 136.343 32.156 136.716 32.184C137.332 32.24 137.836 32.3567 138.228 32.534C138.63 32.7113 138.924 32.9493 139.11 33.248C139.297 33.5373 139.39 33.8967 139.39 34.326C139.39 34.746 139.274 35.138 139.04 35.502C138.816 35.8753 138.466 36.174 137.99 36.398C137.514 36.6313 136.912 36.748 136.184 36.748ZM136.184 31.414C135.596 31.414 135.088 31.302 134.658 31.078C134.238 30.8447 133.912 30.5367 133.678 30.154C133.454 29.762 133.342 29.328 133.342 28.852C133.342 28.376 133.454 27.9467 133.678 27.564C133.912 27.172 134.238 26.8593 134.658 26.626C135.088 26.3927 135.596 26.276 136.184 26.276C136.782 26.276 137.29 26.3927 137.71 26.626C138.14 26.8593 138.466 27.172 138.69 27.564C138.914 27.9467 139.026 28.376 139.026 28.852C139.026 29.328 138.914 29.762 138.69 30.154C138.466 30.5367 138.14 30.8447 137.71 31.078C137.29 31.302 136.782 31.414 136.184 31.414ZM136.184 29.972C136.548 29.972 136.842 29.8787 137.066 29.692C137.29 29.5053 137.402 29.23 137.402 28.866C137.402 28.502 137.29 28.2267 137.066 28.04C136.842 27.844 136.548 27.746 136.184 27.746C135.83 27.746 135.536 27.844 135.302 28.04C135.078 28.2267 134.966 28.502 134.966 28.866C134.966 29.23 135.078 29.5053 135.302 29.692C135.536 29.8787 135.83 29.972 136.184 29.972ZM137.36 27.788L137.052 26.444H139.95V27.564L137.36 27.788ZM144.615 33.668C143.906 33.668 143.276 33.5187 142.725 33.22C142.184 32.912 141.759 32.4873 141.451 31.946C141.152 31.3953 141.003 30.7607 141.003 30.042C141.003 29.3047 141.152 28.656 141.451 28.096C141.759 27.5267 142.184 27.0833 142.725 26.766C143.266 26.4393 143.896 26.276 144.615 26.276C145.315 26.276 145.926 26.43 146.449 26.738C146.972 27.046 147.378 27.4613 147.667 27.984C147.956 28.5067 148.101 29.0993 148.101 29.762C148.101 29.8553 148.101 29.9627 148.101 30.084C148.101 30.196 148.092 30.3127 148.073 30.434H142.347V29.286H146.197C146.169 28.8287 146.006 28.4693 145.707 28.208C145.418 27.9467 145.054 27.816 144.615 27.816C144.298 27.816 144.004 27.8907 143.733 28.04C143.462 28.18 143.248 28.3993 143.089 28.698C142.94 28.9967 142.865 29.3747 142.865 29.832V30.238C142.865 30.6207 142.935 30.9567 143.075 31.246C143.224 31.526 143.43 31.7453 143.691 31.904C143.952 32.0533 144.256 32.128 144.601 32.128C144.946 32.128 145.231 32.0533 145.455 31.904C145.688 31.7547 145.861 31.5633 145.973 31.33H147.905C147.774 31.7687 147.555 32.1653 147.247 32.52C146.939 32.8747 146.561 33.1547 146.113 33.36C145.665 33.5653 145.166 33.668 144.615 33.668ZM156.15 33.5C155.655 33.5 155.221 33.4253 154.848 33.276C154.484 33.1173 154.199 32.8607 153.994 32.506C153.788 32.142 153.686 31.6473 153.686 31.022V28.026H152.482V26.444H153.686L153.896 24.526H155.576V26.444H157.438V28.026H155.576V31.05C155.576 31.3673 155.646 31.5867 155.786 31.708C155.926 31.8293 156.164 31.89 156.5 31.89H157.424V33.5H156.15ZM162.197 33.668C161.525 33.668 160.918 33.514 160.377 33.206C159.845 32.8887 159.42 32.4547 159.103 31.904C158.795 31.344 158.641 30.7047 158.641 29.986C158.641 29.2487 158.795 28.6047 159.103 28.054C159.42 27.494 159.849 27.06 160.391 26.752C160.932 26.4347 161.539 26.276 162.211 26.276C162.892 26.276 163.499 26.4347 164.031 26.752C164.572 27.06 164.997 27.494 165.305 28.054C165.622 28.6047 165.781 29.244 165.781 29.972C165.781 30.7 165.622 31.344 165.305 31.904C164.997 32.4547 164.572 32.8887 164.031 33.206C163.489 33.514 162.878 33.668 162.197 33.668ZM162.197 32.03C162.514 32.03 162.794 31.9553 163.037 31.806C163.289 31.6567 163.485 31.428 163.625 31.12C163.774 30.812 163.849 30.4293 163.849 29.972C163.849 29.5147 163.774 29.1367 163.625 28.838C163.485 28.53 163.289 28.3013 163.037 28.152C162.794 27.9933 162.519 27.914 162.211 27.914C161.912 27.914 161.637 27.9933 161.385 28.152C161.133 28.3013 160.932 28.53 160.783 28.838C160.643 29.1367 160.573 29.5147 160.573 29.972C160.573 30.4293 160.643 30.812 160.783 31.12C160.932 31.428 161.128 31.6567 161.371 31.806C161.623 31.9553 161.898 32.03 162.197 32.03ZM170.774 33.5V23.7H173.028L176.024 29.818L178.992 23.7H181.246V33.5H179.356V26.92L176.766 32.128H175.268L172.664 26.92V33.5H170.774ZM183.189 33.5V26.444H185.079V33.5H183.189ZM184.141 25.478C183.805 25.478 183.525 25.38 183.301 25.184C183.086 24.9787 182.979 24.722 182.979 24.414C182.979 24.106 183.086 23.854 183.301 23.658C183.525 23.4527 183.805 23.35 184.141 23.35C184.486 23.35 184.766 23.4527 184.981 23.658C185.205 23.854 185.317 24.106 185.317 24.414C185.317 24.722 185.205 24.9787 184.981 25.184C184.766 25.38 184.486 25.478 184.141 25.478ZM187.003 33.5V26.444H188.669L188.809 27.592C189.023 27.2 189.327 26.8827 189.719 26.64C190.12 26.3973 190.596 26.276 191.147 26.276C191.735 26.276 192.229 26.3973 192.631 26.64C193.032 26.8827 193.335 27.2373 193.541 27.704C193.755 28.1707 193.863 28.7447 193.863 29.426V33.5H191.987V29.608C191.987 29.048 191.865 28.6187 191.623 28.32C191.389 28.0213 191.025 27.872 190.531 27.872C190.213 27.872 189.929 27.9467 189.677 28.096C189.434 28.2453 189.243 28.46 189.103 28.74C188.963 29.0107 188.893 29.342 188.893 29.734V33.5H187.003ZM198.835 33.5C198.341 33.5 197.907 33.4253 197.533 33.276C197.169 33.1173 196.885 32.8607 196.679 32.506C196.474 32.142 196.371 31.6473 196.371 31.022V28.026H195.167V26.444H196.371L196.581 24.526H198.261V26.444H200.123V28.026H198.261V31.05C198.261 31.3673 198.331 31.5867 198.471 31.708C198.611 31.8293 198.849 31.89 199.185 31.89H200.109V33.5H198.835ZM208.425 33.668C207.715 33.668 207.085 33.5187 206.535 33.22C205.993 32.912 205.569 32.4873 205.261 31.946C204.962 31.3953 204.813 30.7607 204.813 30.042C204.813 29.3047 204.962 28.656 205.261 28.096C205.569 27.5267 205.993 27.0833 206.535 26.766C207.076 26.4393 207.706 26.276 208.425 26.276C209.125 26.276 209.736 26.43 210.259 26.738C210.781 27.046 211.187 27.4613 211.477 27.984C211.766 28.5067 211.911 29.0993 211.911 29.762C211.911 29.8553 211.911 29.9627 211.911 30.084C211.911 30.196 211.901 30.3127 211.883 30.434H206.157V29.286H210.007C209.979 28.8287 209.815 28.4693 209.517 28.208C209.227 27.9467 208.863 27.816 208.425 27.816C208.107 27.816 207.813 27.8907 207.543 28.04C207.272 28.18 207.057 28.3993 206.899 28.698C206.749 28.9967 206.675 29.3747 206.675 29.832V30.238C206.675 30.6207 206.745 30.9567 206.885 31.246C207.034 31.526 207.239 31.7453 207.501 31.904C207.762 32.0533 208.065 32.128 208.411 32.128C208.756 32.128 209.041 32.0533 209.265 31.904C209.498 31.7547 209.671 31.5633 209.783 31.33H211.715C211.584 31.7687 211.365 32.1653 211.057 32.52C210.749 32.8747 210.371 33.1547 209.923 33.36C209.475 33.5653 208.975 33.668 208.425 33.668ZM212.309 33.5L214.843 29.972L212.309 26.444H214.353L216.047 28.866L217.741 26.444H219.771L217.237 29.972L219.771 33.5H217.741L216.047 31.064L214.353 33.5H212.309ZM224.157 33.5C223.662 33.5 223.228 33.4253 222.855 33.276C222.491 33.1173 222.206 32.8607 222.001 32.506C221.796 32.142 221.693 31.6473 221.693 31.022V28.026H220.489V26.444H221.693L221.903 24.526H223.583V26.444H225.445V28.026H223.583V31.05C223.583 31.3673 223.653 31.5867 223.793 31.708C223.933 31.8293 224.171 31.89 224.507 31.89H225.431V33.5H224.157ZM230.26 33.668C229.55 33.668 228.92 33.5187 228.37 33.22C227.828 32.912 227.404 32.4873 227.096 31.946C226.797 31.3953 226.648 30.7607 226.648 30.042C226.648 29.3047 226.797 28.656 227.096 28.096C227.404 27.5267 227.828 27.0833 228.37 26.766C228.911 26.4393 229.541 26.276 230.26 26.276C230.96 26.276 231.571 26.43 232.094 26.738C232.616 27.046 233.022 27.4613 233.312 27.984C233.601 28.5067 233.746 29.0993 233.746 29.762C233.746 29.8553 233.746 29.9627 233.746 30.084C233.746 30.196 233.736 30.3127 233.718 30.434H227.992V29.286H231.842C231.814 28.8287 231.65 28.4693 231.352 28.208C231.062 27.9467 230.698 27.816 230.26 27.816C229.942 27.816 229.648 27.8907 229.378 28.04C229.107 28.18 228.892 28.3993 228.734 28.698C228.584 28.9967 228.51 29.3747 228.51 29.832V30.238C228.51 30.6207 228.58 30.9567 228.72 31.246C228.869 31.526 229.074 31.7453 229.336 31.904C229.597 32.0533 229.9 32.128 230.246 32.128C230.591 32.128 230.876 32.0533 231.1 31.904C231.333 31.7547 231.506 31.5633 231.618 31.33H233.55C233.419 31.7687 233.2 32.1653 232.892 32.52C232.584 32.8747 232.206 33.1547 231.758 33.36C231.31 33.5653 230.81 33.668 230.26 33.668ZM235.308 33.5V26.444H236.974L237.114 27.592C237.328 27.2 237.632 26.8827 238.024 26.64C238.425 26.3973 238.901 26.276 239.452 26.276C240.04 26.276 240.534 26.3973 240.936 26.64C241.337 26.8827 241.64 27.2373 241.846 27.704C242.06 28.1707 242.168 28.7447 242.168 29.426V33.5H240.292V29.608C240.292 29.048 240.17 28.6187 239.928 28.32C239.694 28.0213 239.33 27.872 238.836 27.872C238.518 27.872 238.234 27.9467 237.982 28.096C237.739 28.2453 237.548 28.46 237.408 28.74C237.268 29.0107 237.198 29.342 237.198 29.734V33.5H235.308ZM246.846 33.668C246.202 33.668 245.642 33.5653 245.166 33.36C244.69 33.1547 244.317 32.87 244.046 32.506C243.776 32.142 243.622 31.7313 243.584 31.274H245.46C245.507 31.4513 245.586 31.6147 245.698 31.764C245.81 31.904 245.96 32.016 246.146 32.1C246.333 32.184 246.557 32.226 246.818 32.226C247.07 32.226 247.276 32.1933 247.434 32.128C247.593 32.0533 247.71 31.9553 247.784 31.834C247.868 31.7127 247.91 31.5867 247.91 31.456C247.91 31.26 247.854 31.1107 247.742 31.008C247.63 30.896 247.467 30.8073 247.252 30.742C247.038 30.6767 246.776 30.6113 246.468 30.546C246.132 30.4807 245.801 30.4013 245.474 30.308C245.157 30.2053 244.872 30.0793 244.62 29.93C244.368 29.7807 244.168 29.5893 244.018 29.356C243.869 29.1227 243.794 28.8333 243.794 28.488C243.794 28.068 243.906 27.6947 244.13 27.368C244.354 27.032 244.681 26.766 245.11 26.57C245.54 26.374 246.058 26.276 246.664 26.276C247.514 26.276 248.186 26.4673 248.68 26.85C249.175 27.2327 249.469 27.76 249.562 28.432H247.784C247.728 28.2173 247.602 28.0493 247.406 27.928C247.22 27.7973 246.968 27.732 246.65 27.732C246.314 27.732 246.058 27.7927 245.88 27.914C245.703 28.0353 245.614 28.194 245.614 28.39C245.614 28.5207 245.67 28.6373 245.782 28.74C245.904 28.8427 246.072 28.9313 246.286 29.006C246.501 29.0713 246.762 29.1367 247.07 29.202C247.612 29.314 248.088 29.4447 248.498 29.594C248.909 29.734 249.231 29.9393 249.464 30.21C249.698 30.4713 249.814 30.854 249.814 31.358C249.814 31.806 249.693 32.2073 249.45 32.562C249.208 32.9073 248.862 33.178 248.414 33.374C247.976 33.57 247.453 33.668 246.846 33.668ZM251.469 33.5V26.444H253.359V33.5H251.469ZM252.421 25.478C252.085 25.478 251.805 25.38 251.581 25.184C251.367 24.9787 251.259 24.722 251.259 24.414C251.259 24.106 251.367 23.854 251.581 23.658C251.805 23.4527 252.085 23.35 252.421 23.35C252.767 23.35 253.047 23.4527 253.261 23.658C253.485 23.854 253.597 24.106 253.597 24.414C253.597 24.722 253.485 24.9787 253.261 25.184C253.047 25.38 252.767 25.478 252.421 25.478ZM258.615 33.668C257.943 33.668 257.337 33.514 256.795 33.206C256.263 32.8887 255.839 32.4547 255.521 31.904C255.213 31.344 255.059 30.7047 255.059 29.986C255.059 29.2487 255.213 28.6047 255.521 28.054C255.839 27.494 256.268 27.06 256.809 26.752C257.351 26.4347 257.957 26.276 258.629 26.276C259.311 26.276 259.917 26.4347 260.449 26.752C260.991 27.06 261.415 27.494 261.723 28.054C262.041 28.6047 262.199 29.244 262.199 29.972C262.199 30.7 262.041 31.344 261.723 31.904C261.415 32.4547 260.991 32.8887 260.449 33.206C259.908 33.514 259.297 33.668 258.615 33.668ZM258.615 32.03C258.933 32.03 259.213 31.9553 259.455 31.806C259.707 31.6567 259.903 31.428 260.043 31.12C260.193 30.812 260.267 30.4293 260.267 29.972C260.267 29.5147 260.193 29.1367 260.043 28.838C259.903 28.53 259.707 28.3013 259.455 28.152C259.213 27.9933 258.937 27.914 258.629 27.914C258.331 27.914 258.055 27.9933 257.803 28.152C257.551 28.3013 257.351 28.53 257.201 28.838C257.061 29.1367 256.991 29.5147 256.991 29.972C256.991 30.4293 257.061 30.812 257.201 31.12C257.351 31.428 257.547 31.6567 257.789 31.806C258.041 31.9553 258.317 32.03 258.615 32.03ZM263.842 33.5V26.444H265.508L265.648 27.592C265.863 27.2 266.166 26.8827 266.558 26.64C266.96 26.3973 267.436 26.276 267.986 26.276C268.574 26.276 269.069 26.3973 269.47 26.64C269.872 26.8827 270.175 27.2373 270.38 27.704C270.595 28.1707 270.702 28.7447 270.702 29.426V33.5H268.826V29.608C268.826 29.048 268.705 28.6187 268.462 28.32C268.229 28.0213 267.865 27.872 267.37 27.872C267.053 27.872 266.768 27.9467 266.516 28.096C266.274 28.2453 266.082 28.46 265.942 28.74C265.802 29.0107 265.732 29.342 265.732 29.734V33.5H263.842ZM275.381 33.668C274.737 33.668 274.177 33.5653 273.701 33.36C273.225 33.1547 272.851 32.87 272.581 32.506C272.31 32.142 272.156 31.7313 272.119 31.274H273.995C274.041 31.4513 274.121 31.6147 274.233 31.764C274.345 31.904 274.494 32.016 274.681 32.1C274.867 32.184 275.091 32.226 275.353 32.226C275.605 32.226 275.81 32.1933 275.969 32.128C276.127 32.0533 276.244 31.9553 276.319 31.834C276.403 31.7127 276.445 31.5867 276.445 31.456C276.445 31.26 276.389 31.1107 276.277 31.008C276.165 30.896 276.001 30.8073 275.787 30.742C275.572 30.6767 275.311 30.6113 275.003 30.546C274.667 30.4807 274.335 30.4013 274.009 30.308C273.691 30.2053 273.407 30.0793 273.155 29.93C272.903 29.7807 272.702 29.5893 272.553 29.356C272.403 29.1227 272.329 28.8333 272.329 28.488C272.329 28.068 272.441 27.6947 272.665 27.368C272.889 27.032 273.215 26.766 273.645 26.57C274.074 26.374 274.592 26.276 275.199 26.276C276.048 26.276 276.72 26.4673 277.215 26.85C277.709 27.2327 278.003 27.76 278.097 28.432H276.319C276.263 28.2173 276.137 28.0493 275.941 27.928C275.754 27.7973 275.502 27.732 275.185 27.732C274.849 27.732 274.592 27.7927 274.415 27.914C274.237 28.0353 274.149 28.194 274.149 28.39C274.149 28.5207 274.205 28.6373 274.317 28.74C274.438 28.8427 274.606 28.9313 274.821 29.006C275.035 29.0713 275.297 29.1367 275.605 29.202C276.146 29.314 276.622 29.4447 277.033 29.594C277.443 29.734 277.765 29.9393 277.999 30.21C278.232 30.4713 278.349 30.854 278.349 31.358C278.349 31.806 278.227 32.2073 277.985 32.562C277.742 32.9073 277.397 33.178 276.949 33.374C276.51 33.57 275.987 33.668 275.381 33.668Z" fill="#FDFDFD"/>
<defs>
<linearGradient id="paint0_linear_59_581" x1="0" y1="28.5" x2="315" y2="28.5" gradientUnits="userSpaceOnUse">
<stop stop-color="#AD6AFF"/>
<stop offset="1" stop-color="#12DB88"/>
</linearGradient>
</defs>
</svg>
